<svg xmlns="http://www.w3.org/2000/svg" xmlns:xlink="http://www.w3.org/1999/xlink"><defs><clipPath id="clip0_914_2580"><rect width="10" height="10" fill="white"/></clipPath></defs><symbol id="arrow-btn" viewBox="0 0 10 10"><g clip-path="url(#clip0_914_2580)"><path d="M1 9L9 1M9 1H1.05298M9 1V8.94702"/></g></symbol><symbol id="arrow-down" viewBox="0 0 12 12"><g fill="none"><path d="M11.454 3.81812L5.99947 8.72721L0.544922 3.81812" stroke="white"/></g></symbol><symbol id="caret" viewBox="0 0 16 16"><path d="M15.273 5.09082L8.00027 11.6363L0.727539 5.09082"/></symbol><symbol id="icon-close" viewBox="0 0 20 20"><g fill="none"><path d="M.293 18.291a1 1 0 101.414 1.414L10 11.413l8.292 8.292a1 1 0 101.414-1.414l-8.292-8.292 8.292-8.292A1 1 0 1018.291.293L9.999 8.585 1.707.293A1 1 0 10.293 1.707L8.585 10 .293 18.291z"/></g></symbol><symbol id="ok" viewBox="0 0 16 16"><path d="M8.00071 2.42035C8.96283 2.42035 9.74528 3.18736 9.74528 4.1305C9.74528 5.0708 8.96283 5.83781 8.00071 5.83781C7.03859 5.83781 6.25614 5.0708 6.25614 4.1305C6.25614 3.18736 7.03859 2.42035 8.00071 2.42035ZM8.00071 8.25816C10.3249 8.25816 12.2143 6.40597 12.2143 4.1305C12.2143 1.85219 10.3249 0 8.00071 0C5.67654 0 3.78997 1.85219 3.78997 4.1305C3.78997 6.40597 5.67654 8.25816 8.00071 8.25816ZM9.70471 11.6273C10.5625 11.4342 11.3884 11.1018 12.1506 10.6331C12.7273 10.278 12.9012 9.53083 12.5389 8.96551C12.1738 8.39735 11.4145 8.22691 10.8349 8.58485C9.11063 9.6473 6.89079 9.6473 5.16361 8.58485C4.58691 8.22691 3.82475 8.39735 3.4625 8.96551C3.10026 9.53083 3.27413 10.278 3.85083 10.6331C4.61299 11.1018 5.43891 11.4342 6.29671 11.6273L3.94067 13.934C3.4596 14.4056 3.4596 15.1726 3.94067 15.6442C4.18409 15.88 4.49707 15.9993 4.81295 15.9993C5.12883 15.9993 5.44471 15.88 5.68814 15.6442L8.00071 13.3772L10.3162 15.6442C10.7972 16.1186 11.5768 16.1186 12.0608 15.6442C12.5418 15.1726 12.5418 14.4056 12.0608 13.934L9.70471 11.6273Z"/></symbol><symbol id="reddit" viewBox="0 0 16 16"><path d="M9.41405 0.363525C8.94762 0.363525 8.50993 0.611969 8.22919 0.97025C7.94845 1.32853 7.79371 1.76527 7.68097 2.22554C7.50191 2.96564 7.44665 3.78681 7.43339 4.52691C6.12252 4.61844 4.93545 5.02641 3.94954 5.65668C3.54942 5.30363 3.06752 5.10749 2.60551 5.11272C2.0794 5.11795 1.57981 5.35593 1.20844 5.84497C0.498845 6.77859 0.580636 8.30587 1.40297 9.21334C1.35212 9.49317 1.31454 9.78084 1.31454 10.0711C1.31454 13.1466 4.30765 15.6363 7.99929 15.6363C11.6909 15.6363 14.684 13.144 14.684 10.0711C14.684 9.78084 14.6465 9.49317 14.5956 9.21334C15.4179 8.30587 15.4997 6.77859 14.7901 5.84497C14.4188 5.35593 13.9192 5.11795 13.3931 5.11272C12.9311 5.10749 12.4492 5.30363 12.049 5.65668C11.0676 5.02903 9.88711 4.62106 8.58288 4.52691C8.60056 3.84435 8.64699 3.13563 8.77741 2.60213C8.8592 2.26739 8.95646 2.02417 9.06036 1.8908C9.16426 1.75742 9.23942 1.7025 9.41405 1.7025C9.79206 1.7025 9.84069 1.83065 10.0684 2.14186C10.1833 2.29877 10.316 2.49491 10.5282 2.68582C10.7404 2.87673 11.0543 3.04148 11.3947 3.04148V1.7025C11.2997 1.7025 11.282 1.69989 11.2179 1.63974C11.1538 1.57959 11.0653 1.44098 10.9349 1.26315C10.6741 0.904871 10.1679 0.363525 9.41405 0.363525ZM13.0924 0.489055C12.2126 0.489055 11.5008 1.33115 11.5008 2.37199C11.5008 3.41284 12.2126 4.25493 13.0924 4.25493C13.9722 4.25493 14.684 3.41284 14.684 2.37199C14.684 1.33115 13.9722 0.489055 13.0924 0.489055ZM13.0924 1.15854C13.6583 1.15854 14.1181 1.7025 14.1181 2.37199C14.1181 3.04148 13.6583 3.58544 13.0924 3.58544C12.5265 3.58544 12.0667 3.04148 12.0667 2.37199C12.0667 1.7025 12.5265 1.15854 13.0924 1.15854ZM7.99929 5.57299C11.1317 5.57299 13.7821 7.63638 13.7821 10.0711C13.7821 12.5085 11.1317 14.5693 7.99929 14.5693C4.86692 14.5693 2.21645 12.5085 2.21645 10.0711C2.21645 7.63638 4.86692 5.57299 7.99929 5.57299ZM2.6232 6.17972C2.78015 6.18233 2.94373 6.22417 3.10068 6.30524C2.53256 6.81521 2.08161 7.40101 1.77434 8.06265C1.56213 7.54485 1.6196 6.89889 1.88045 6.5563C2.07056 6.30524 2.33361 6.1771 2.6232 6.17972ZM13.3754 6.17972C13.665 6.1771 13.928 6.30524 14.1181 6.5563C14.379 6.89889 14.4365 7.54485 14.2242 8.06265C13.917 7.40101 13.466 6.81521 12.8979 6.30524C13.0549 6.22417 13.2184 6.18233 13.3754 6.17972ZM5.73567 7.85344C5.16977 7.85344 4.70997 8.3974 4.70997 9.06689C4.70997 9.73638 5.16977 10.2803 5.73567 10.2803C6.30158 10.2803 6.76137 9.73638 6.76137 9.06689C6.76137 8.3974 6.30158 7.85344 5.73567 7.85344ZM10.2629 7.85344C9.697 7.85344 9.23721 8.3974 9.23721 9.06689C9.23721 9.73638 9.697 10.2803 10.2629 10.2803C10.8288 10.2803 11.2886 9.73638 11.2886 9.06689C11.2886 8.3974 10.8288 7.85344 10.2629 7.85344ZM5.18745 11.975C5.54777 12.8563 6.6619 13.7115 7.99929 13.7115C9.33668 13.7115 10.4685 12.8563 10.8288 11.975C10.1745 12.4745 9.14215 12.8118 7.99929 12.8118C6.85643 12.8118 5.84178 12.4745 5.18745 11.975Z"/></symbol><symbol id="star" viewBox="0 0 18 22"><g fill="none"><path d="M9 0L12.0138 5.47476L18 5.5L15.0275 11L18 16.5L12.0138 16.5252L9 22L5.98623 16.5252L0 16.5L2.97246 11L0 5.5L5.98623 5.47476L9 0Z" fill="white"/></g></symbol><symbol id="tick" viewBox="0 0 10 8"><path d="M1 3.5L3.94737 7L9 1" stroke-linecap="round" stroke-linejoin="round"/></symbol><symbol id="vk" viewBox="0 0 16 16"><path d="M15.8574 11.4207C15.8144 11.3518 15.5484 10.7992 14.2683 9.66345C12.9282 8.47413 13.1082 8.66725 14.7223 6.6108C15.7054 5.35839 16.0984 4.59355 15.9754 4.26659C15.8584 3.95492 15.1353 4.03714 15.1353 4.03714L12.7312 4.05052C12.7312 4.05052 12.5531 4.02758 12.4201 4.1031C12.2911 4.17768 12.2081 4.34976 12.2081 4.34976C12.2081 4.34976 11.8271 5.31919 11.3191 6.1433C10.248 7.88234 9.81894 7.97412 9.64393 7.86609C9.2369 7.61465 9.33891 6.85459 9.33891 6.31539C9.33891 4.62988 9.60593 3.92719 8.81787 3.74554C8.55585 3.68531 8.36384 3.64516 7.69479 3.63847C6.83672 3.62986 6.10967 3.64134 5.69864 3.8335C5.42462 3.96161 5.21361 4.24747 5.34262 4.26372C5.50163 4.2838 5.86165 4.35646 6.05267 4.60503C6.29969 4.9253 6.29069 5.64616 6.29069 5.64616C6.29069 5.64616 6.4327 7.62994 5.95966 7.8766C5.63464 8.04582 5.1896 7.70069 4.23453 6.12227C3.7455 5.31441 3.37547 4.42051 3.37547 4.42051C3.37547 4.42051 3.30447 4.25416 3.17746 4.16525C3.02345 4.05721 2.80743 4.0228 2.80743 4.0228L0.521262 4.03618C0.521262 4.03618 0.178236 4.04574 0.0522271 4.18819C-0.0597811 4.31535 0.0432264 4.5773 0.0432264 4.5773C0.0432264 4.5773 1.83336 8.58025 3.85951 10.5985C5.71864 12.4484 7.8288 12.327 7.8288 12.327H8.78487C8.78487 12.327 9.07389 12.2964 9.2209 12.1444C9.35691 12.0048 9.35191 11.7428 9.35191 11.7428C9.35191 11.7428 9.33291 10.5162 9.92895 10.3355C10.516 10.1577 11.2701 11.521 12.0691 12.0459C12.6732 12.4427 13.1322 12.3557 13.1322 12.3557L15.2693 12.327C15.2693 12.327 16.3874 12.261 15.8574 11.4207Z"/></symbol></svg>